<mxfile host="app.diagrams.net" modified="2023-10-02T15:08:34.027Z" agent="Mozilla/5.0 (X11; Linux x86_64) AppleWebKit/537.36 (KHTML, like Gecko) Chrome/118.0.0.0 Safari/537.36  " etag="DREP9v6BKReOG5UGDxAf" version="21.8.2" type="device">
  <diagram name="Page-1" id="BRS60Cyc1vWPqy8TxzzW">
    <mxGraphModel dx="1793" dy="1041" grid="1" gridSize="10" guides="1" tooltips="1" connect="1" arrows="1" fold="1" page="1" pageScale="1" pageWidth="850" pageHeight="1100" math="0" shadow="0">
      <root>
        <mxCell id="0" />
        <mxCell id="1" parent="0" />
        <mxCell id="Tc0AgeBy6P-cAT61xZyd-98" value="" style="rounded=0;whiteSpace=wrap;html=1;" parent="1" vertex="1">
          <mxGeometry x="995" y="30" width="205" height="180" as="geometry" />
        </mxCell>
        <mxCell id="Tc0AgeBy6P-cAT61xZyd-86" value="" style="rounded=0;whiteSpace=wrap;html=1;" parent="1" vertex="1">
          <mxGeometry x="560" y="1160" width="270" height="570" as="geometry" />
        </mxCell>
        <mxCell id="Tc0AgeBy6P-cAT61xZyd-65" value="" style="rounded=0;whiteSpace=wrap;html=1;" parent="1" vertex="1">
          <mxGeometry x="110" y="1120" width="280" height="600" as="geometry" />
        </mxCell>
        <mxCell id="Tc0AgeBy6P-cAT61xZyd-57" value="" style="rounded=0;whiteSpace=wrap;html=1;" parent="1" vertex="1">
          <mxGeometry x="540" y="510" width="280" height="570" as="geometry" />
        </mxCell>
        <mxCell id="Tc0AgeBy6P-cAT61xZyd-36" value="" style="rounded=0;whiteSpace=wrap;html=1;" parent="1" vertex="1">
          <mxGeometry x="540" y="30" width="280" height="450" as="geometry" />
        </mxCell>
        <mxCell id="Tc0AgeBy6P-cAT61xZyd-22" value="" style="rounded=0;whiteSpace=wrap;html=1;" parent="1" vertex="1">
          <mxGeometry x="110" y="20" width="280" height="450" as="geometry" />
        </mxCell>
        <mxCell id="Tc0AgeBy6P-cAT61xZyd-18" value="" style="rounded=0;whiteSpace=wrap;html=1;" parent="1" vertex="1">
          <mxGeometry x="110" y="520" width="280" height="370" as="geometry" />
        </mxCell>
        <mxCell id="Tc0AgeBy6P-cAT61xZyd-2" value="Teacher" style="shape=umlActor;verticalLabelPosition=bottom;verticalAlign=top;html=1;outlineConnect=0;" parent="1" vertex="1">
          <mxGeometry x="20" y="210" width="30" height="60" as="geometry" />
        </mxCell>
        <mxCell id="Tc0AgeBy6P-cAT61xZyd-3" value="Create course" style="ellipse;whiteSpace=wrap;html=1;" parent="1" vertex="1">
          <mxGeometry x="190" y="160" width="120" height="80" as="geometry" />
        </mxCell>
        <mxCell id="Tc0AgeBy6P-cAT61xZyd-4" value="Rename course" style="ellipse;whiteSpace=wrap;html=1;" parent="1" vertex="1">
          <mxGeometry x="190" y="260" width="120" height="80" as="geometry" />
        </mxCell>
        <mxCell id="Tc0AgeBy6P-cAT61xZyd-5" value="Hide course" style="ellipse;whiteSpace=wrap;html=1;" parent="1" vertex="1">
          <mxGeometry x="190" y="360" width="120" height="80" as="geometry" />
        </mxCell>
        <mxCell id="Tc0AgeBy6P-cAT61xZyd-6" value="Copy invitation code" style="ellipse;whiteSpace=wrap;html=1;" parent="1" vertex="1">
          <mxGeometry x="190" y="60" width="120" height="80" as="geometry" />
        </mxCell>
        <mxCell id="Tc0AgeBy6P-cAT61xZyd-7" value="List enrolled students" style="ellipse;whiteSpace=wrap;html=1;" parent="1" vertex="1">
          <mxGeometry x="190" y="560" width="120" height="80" as="geometry" />
        </mxCell>
        <mxCell id="Tc0AgeBy6P-cAT61xZyd-8" value="Enroll student" style="ellipse;whiteSpace=wrap;html=1;" parent="1" vertex="1">
          <mxGeometry x="190" y="670" width="120" height="80" as="geometry" />
        </mxCell>
        <mxCell id="Tc0AgeBy6P-cAT61xZyd-9" value="Remove student" style="ellipse;whiteSpace=wrap;html=1;" parent="1" vertex="1">
          <mxGeometry x="190" y="780" width="120" height="80" as="geometry" />
        </mxCell>
        <mxCell id="Tc0AgeBy6P-cAT61xZyd-12" value="" style="endArrow=none;html=1;rounded=0;entryX=0;entryY=0.5;entryDx=0;entryDy=0;exitX=0.5;exitY=0.5;exitDx=0;exitDy=0;exitPerimeter=0;endFill=0;" parent="1" source="Tc0AgeBy6P-cAT61xZyd-2" target="Tc0AgeBy6P-cAT61xZyd-3" edge="1">
          <mxGeometry width="50" height="50" relative="1" as="geometry">
            <mxPoint x="90" y="240" as="sourcePoint" />
            <mxPoint x="200" y="240" as="targetPoint" />
          </mxGeometry>
        </mxCell>
        <mxCell id="Tc0AgeBy6P-cAT61xZyd-13" value="" style="endArrow=none;html=1;rounded=0;entryX=0;entryY=0.5;entryDx=0;entryDy=0;exitX=0.5;exitY=0.5;exitDx=0;exitDy=0;exitPerimeter=0;endFill=0;" parent="1" source="Tc0AgeBy6P-cAT61xZyd-2" target="Tc0AgeBy6P-cAT61xZyd-6" edge="1">
          <mxGeometry width="50" height="50" relative="1" as="geometry">
            <mxPoint x="90" y="240" as="sourcePoint" />
            <mxPoint x="200" y="240" as="targetPoint" />
          </mxGeometry>
        </mxCell>
        <mxCell id="Tc0AgeBy6P-cAT61xZyd-14" value="" style="endArrow=none;html=1;rounded=0;entryX=0;entryY=0.5;entryDx=0;entryDy=0;exitX=0.5;exitY=0.5;exitDx=0;exitDy=0;exitPerimeter=0;endFill=0;" parent="1" source="Tc0AgeBy6P-cAT61xZyd-2" target="Tc0AgeBy6P-cAT61xZyd-4" edge="1">
          <mxGeometry width="50" height="50" relative="1" as="geometry">
            <mxPoint x="90" y="240" as="sourcePoint" />
            <mxPoint x="180" y="230" as="targetPoint" />
          </mxGeometry>
        </mxCell>
        <mxCell id="Tc0AgeBy6P-cAT61xZyd-15" value="" style="endArrow=none;html=1;rounded=0;entryX=0;entryY=0.5;entryDx=0;entryDy=0;exitX=0.5;exitY=0.5;exitDx=0;exitDy=0;exitPerimeter=0;endFill=0;" parent="1" source="Tc0AgeBy6P-cAT61xZyd-2" target="Tc0AgeBy6P-cAT61xZyd-5" edge="1">
          <mxGeometry width="50" height="50" relative="1" as="geometry">
            <mxPoint x="90" y="240" as="sourcePoint" />
            <mxPoint x="180" y="230" as="targetPoint" />
          </mxGeometry>
        </mxCell>
        <mxCell id="Tc0AgeBy6P-cAT61xZyd-19" value="UPB CODE LABS" style="text;html=1;strokeColor=none;fillColor=none;align=center;verticalAlign=middle;whiteSpace=wrap;rounded=0;" parent="1" vertex="1">
          <mxGeometry x="200" y="20" width="100" height="30" as="geometry" />
        </mxCell>
        <mxCell id="Tc0AgeBy6P-cAT61xZyd-20" value="Teacher" style="shape=umlActor;verticalLabelPosition=bottom;verticalAlign=top;html=1;outlineConnect=0;" parent="1" vertex="1">
          <mxGeometry x="20" y="680" width="30" height="60" as="geometry" />
        </mxCell>
        <mxCell id="Tc0AgeBy6P-cAT61xZyd-23" value="UPB CODE LABS" style="text;html=1;strokeColor=none;fillColor=none;align=center;verticalAlign=middle;whiteSpace=wrap;rounded=0;" parent="1" vertex="1">
          <mxGeometry x="200" y="520" width="100" height="30" as="geometry" />
        </mxCell>
        <mxCell id="Tc0AgeBy6P-cAT61xZyd-24" value="" style="endArrow=none;html=1;rounded=0;exitX=0.5;exitY=0.5;exitDx=0;exitDy=0;exitPerimeter=0;entryX=0;entryY=0.5;entryDx=0;entryDy=0;endFill=0;" parent="1" source="Tc0AgeBy6P-cAT61xZyd-20" target="Tc0AgeBy6P-cAT61xZyd-8" edge="1">
          <mxGeometry width="50" height="50" relative="1" as="geometry">
            <mxPoint x="210" y="730" as="sourcePoint" />
            <mxPoint x="260" y="680" as="targetPoint" />
          </mxGeometry>
        </mxCell>
        <mxCell id="Tc0AgeBy6P-cAT61xZyd-25" value="" style="endArrow=none;html=1;rounded=0;exitX=0.5;exitY=0.5;exitDx=0;exitDy=0;exitPerimeter=0;entryX=0;entryY=0.5;entryDx=0;entryDy=0;endFill=0;" parent="1" source="Tc0AgeBy6P-cAT61xZyd-20" target="Tc0AgeBy6P-cAT61xZyd-7" edge="1">
          <mxGeometry width="50" height="50" relative="1" as="geometry">
            <mxPoint x="210" y="730" as="sourcePoint" />
            <mxPoint x="260" y="680" as="targetPoint" />
          </mxGeometry>
        </mxCell>
        <mxCell id="Tc0AgeBy6P-cAT61xZyd-26" value="" style="endArrow=none;html=1;rounded=0;exitX=0.5;exitY=0.5;exitDx=0;exitDy=0;exitPerimeter=0;entryX=0;entryY=0.5;entryDx=0;entryDy=0;endFill=0;" parent="1" source="Tc0AgeBy6P-cAT61xZyd-20" target="Tc0AgeBy6P-cAT61xZyd-9" edge="1">
          <mxGeometry width="50" height="50" relative="1" as="geometry">
            <mxPoint x="210" y="730" as="sourcePoint" />
            <mxPoint x="260" y="680" as="targetPoint" />
          </mxGeometry>
        </mxCell>
        <mxCell id="Tc0AgeBy6P-cAT61xZyd-27" value="Teacher" style="shape=umlActor;verticalLabelPosition=bottom;verticalAlign=top;html=1;outlineConnect=0;" parent="1" vertex="1">
          <mxGeometry x="460" y="225" width="30" height="60" as="geometry" />
        </mxCell>
        <mxCell id="Tc0AgeBy6P-cAT61xZyd-31" value="Create rubric" style="ellipse;whiteSpace=wrap;html=1;" parent="1" vertex="1">
          <mxGeometry x="620" y="70" width="120" height="80" as="geometry" />
        </mxCell>
        <mxCell id="Tc0AgeBy6P-cAT61xZyd-32" value="Add objective to existing rubric" style="ellipse;whiteSpace=wrap;html=1;" parent="1" vertex="1">
          <mxGeometry x="620" y="270" width="120" height="80" as="geometry" />
        </mxCell>
        <mxCell id="Tc0AgeBy6P-cAT61xZyd-33" value="Add criteria to existing objective" style="ellipse;whiteSpace=wrap;html=1;" parent="1" vertex="1">
          <mxGeometry x="620" y="370" width="120" height="80" as="geometry" />
        </mxCell>
        <mxCell id="Tc0AgeBy6P-cAT61xZyd-34" value="List created rubrics" style="ellipse;whiteSpace=wrap;html=1;" parent="1" vertex="1">
          <mxGeometry x="620" y="170" width="120" height="80" as="geometry" />
        </mxCell>
        <mxCell id="Tc0AgeBy6P-cAT61xZyd-37" value="" style="endArrow=none;html=1;rounded=0;exitX=0.5;exitY=0.5;exitDx=0;exitDy=0;exitPerimeter=0;entryX=0;entryY=0.5;entryDx=0;entryDy=0;endFill=0;" parent="1" source="Tc0AgeBy6P-cAT61xZyd-27" target="Tc0AgeBy6P-cAT61xZyd-31" edge="1">
          <mxGeometry width="50" height="50" relative="1" as="geometry">
            <mxPoint x="350" y="320" as="sourcePoint" />
            <mxPoint x="400" y="270" as="targetPoint" />
          </mxGeometry>
        </mxCell>
        <mxCell id="Tc0AgeBy6P-cAT61xZyd-40" value="" style="endArrow=none;html=1;rounded=0;exitX=0.5;exitY=0.5;exitDx=0;exitDy=0;exitPerimeter=0;entryX=0;entryY=0.5;entryDx=0;entryDy=0;endFill=0;" parent="1" source="Tc0AgeBy6P-cAT61xZyd-27" target="Tc0AgeBy6P-cAT61xZyd-34" edge="1">
          <mxGeometry width="50" height="50" relative="1" as="geometry">
            <mxPoint x="380" y="310" as="sourcePoint" />
            <mxPoint x="430" y="260" as="targetPoint" />
          </mxGeometry>
        </mxCell>
        <mxCell id="Tc0AgeBy6P-cAT61xZyd-41" value="" style="endArrow=none;html=1;rounded=0;exitX=0.5;exitY=0.5;exitDx=0;exitDy=0;exitPerimeter=0;entryX=0.023;entryY=0.557;entryDx=0;entryDy=0;entryPerimeter=0;endFill=0;" parent="1" source="Tc0AgeBy6P-cAT61xZyd-27" target="Tc0AgeBy6P-cAT61xZyd-32" edge="1">
          <mxGeometry width="50" height="50" relative="1" as="geometry">
            <mxPoint x="380" y="310" as="sourcePoint" />
            <mxPoint x="430" y="260" as="targetPoint" />
          </mxGeometry>
        </mxCell>
        <mxCell id="Tc0AgeBy6P-cAT61xZyd-42" value="" style="endArrow=none;html=1;rounded=0;exitX=0.5;exitY=0.5;exitDx=0;exitDy=0;exitPerimeter=0;entryX=0;entryY=0.5;entryDx=0;entryDy=0;endFill=0;" parent="1" source="Tc0AgeBy6P-cAT61xZyd-27" target="Tc0AgeBy6P-cAT61xZyd-33" edge="1">
          <mxGeometry width="50" height="50" relative="1" as="geometry">
            <mxPoint x="380" y="310" as="sourcePoint" />
            <mxPoint x="430" y="260" as="targetPoint" />
          </mxGeometry>
        </mxCell>
        <mxCell id="Tc0AgeBy6P-cAT61xZyd-43" value="UPB CODE LABS" style="text;html=1;strokeColor=none;fillColor=none;align=center;verticalAlign=middle;whiteSpace=wrap;rounded=0;" parent="1" vertex="1">
          <mxGeometry x="630" y="30" width="100" height="30" as="geometry" />
        </mxCell>
        <mxCell id="Tc0AgeBy6P-cAT61xZyd-44" value="Teacher" style="shape=umlActor;verticalLabelPosition=bottom;verticalAlign=top;html=1;outlineConnect=0;" parent="1" vertex="1">
          <mxGeometry x="460" y="770" width="30" height="60" as="geometry" />
        </mxCell>
        <mxCell id="Tc0AgeBy6P-cAT61xZyd-46" value="Add laboratory to class" style="ellipse;whiteSpace=wrap;html=1;" parent="1" vertex="1">
          <mxGeometry x="620" y="560" width="120" height="80" as="geometry" />
        </mxCell>
        <mxCell id="Tc0AgeBy6P-cAT61xZyd-47" value="List created laboratories in class" style="ellipse;whiteSpace=wrap;html=1;" parent="1" vertex="1">
          <mxGeometry x="620" y="660" width="120" height="80" as="geometry" />
        </mxCell>
        <mxCell id="Tc0AgeBy6P-cAT61xZyd-48" value="Update laboratory details" style="ellipse;whiteSpace=wrap;html=1;" parent="1" vertex="1">
          <mxGeometry x="620" y="760" width="120" height="80" as="geometry" />
        </mxCell>
        <mxCell id="Tc0AgeBy6P-cAT61xZyd-50" value="See students advances in laboratory" style="ellipse;whiteSpace=wrap;html=1;" parent="1" vertex="1">
          <mxGeometry x="620" y="860" width="120" height="80" as="geometry" />
        </mxCell>
        <mxCell id="Tc0AgeBy6P-cAT61xZyd-51" value="Disable laboratory" style="ellipse;whiteSpace=wrap;html=1;" parent="1" vertex="1">
          <mxGeometry x="620" y="960" width="120" height="80" as="geometry" />
        </mxCell>
        <mxCell id="Tc0AgeBy6P-cAT61xZyd-52" value="" style="endArrow=none;html=1;rounded=0;exitX=0.5;exitY=0.5;exitDx=0;exitDy=0;exitPerimeter=0;entryX=0;entryY=0.5;entryDx=0;entryDy=0;endFill=0;" parent="1" source="Tc0AgeBy6P-cAT61xZyd-44" target="Tc0AgeBy6P-cAT61xZyd-46" edge="1">
          <mxGeometry width="50" height="50" relative="1" as="geometry">
            <mxPoint x="560" y="850" as="sourcePoint" />
            <mxPoint x="610" y="800" as="targetPoint" />
          </mxGeometry>
        </mxCell>
        <mxCell id="Tc0AgeBy6P-cAT61xZyd-53" value="" style="endArrow=none;html=1;rounded=0;exitX=0.5;exitY=0.5;exitDx=0;exitDy=0;exitPerimeter=0;entryX=0;entryY=0.5;entryDx=0;entryDy=0;endFill=0;" parent="1" source="Tc0AgeBy6P-cAT61xZyd-44" target="Tc0AgeBy6P-cAT61xZyd-47" edge="1">
          <mxGeometry width="50" height="50" relative="1" as="geometry">
            <mxPoint x="560" y="850" as="sourcePoint" />
            <mxPoint x="610" y="800" as="targetPoint" />
          </mxGeometry>
        </mxCell>
        <mxCell id="Tc0AgeBy6P-cAT61xZyd-54" value="" style="endArrow=none;html=1;rounded=0;exitX=0.5;exitY=0.5;exitDx=0;exitDy=0;exitPerimeter=0;entryX=0;entryY=0.5;entryDx=0;entryDy=0;endFill=0;" parent="1" source="Tc0AgeBy6P-cAT61xZyd-44" target="Tc0AgeBy6P-cAT61xZyd-48" edge="1">
          <mxGeometry width="50" height="50" relative="1" as="geometry">
            <mxPoint x="560" y="850" as="sourcePoint" />
            <mxPoint x="610" y="800" as="targetPoint" />
          </mxGeometry>
        </mxCell>
        <mxCell id="Tc0AgeBy6P-cAT61xZyd-55" value="" style="endArrow=none;html=1;rounded=0;exitX=0.5;exitY=0.5;exitDx=0;exitDy=0;exitPerimeter=0;entryX=0;entryY=0.5;entryDx=0;entryDy=0;endFill=0;" parent="1" source="Tc0AgeBy6P-cAT61xZyd-44" target="Tc0AgeBy6P-cAT61xZyd-50" edge="1">
          <mxGeometry width="50" height="50" relative="1" as="geometry">
            <mxPoint x="560" y="850" as="sourcePoint" />
            <mxPoint x="610" y="800" as="targetPoint" />
          </mxGeometry>
        </mxCell>
        <mxCell id="Tc0AgeBy6P-cAT61xZyd-56" value="" style="endArrow=none;html=1;rounded=0;exitX=0.5;exitY=0.5;exitDx=0;exitDy=0;exitPerimeter=0;entryX=0;entryY=0.5;entryDx=0;entryDy=0;endFill=0;" parent="1" source="Tc0AgeBy6P-cAT61xZyd-44" target="Tc0AgeBy6P-cAT61xZyd-51" edge="1">
          <mxGeometry width="50" height="50" relative="1" as="geometry">
            <mxPoint x="560" y="850" as="sourcePoint" />
            <mxPoint x="610" y="800" as="targetPoint" />
          </mxGeometry>
        </mxCell>
        <mxCell id="Tc0AgeBy6P-cAT61xZyd-58" value="UPB CODE LABS" style="text;html=1;strokeColor=none;fillColor=none;align=center;verticalAlign=middle;whiteSpace=wrap;rounded=0;" parent="1" vertex="1">
          <mxGeometry x="630" y="520" width="100" height="30" as="geometry" />
        </mxCell>
        <mxCell id="Tc0AgeBy6P-cAT61xZyd-59" value="Teacher" style="shape=umlActor;verticalLabelPosition=bottom;verticalAlign=top;html=1;outlineConnect=0;" parent="1" vertex="1">
          <mxGeometry x="20" y="1390" width="30" height="60" as="geometry" />
        </mxCell>
        <mxCell id="Tc0AgeBy6P-cAT61xZyd-60" value="Add markdown block" style="ellipse;whiteSpace=wrap;html=1;" parent="1" vertex="1">
          <mxGeometry x="190" y="1170" width="120" height="80" as="geometry" />
        </mxCell>
        <mxCell id="Tc0AgeBy6P-cAT61xZyd-61" value="Add test block" style="ellipse;whiteSpace=wrap;html=1;" parent="1" vertex="1">
          <mxGeometry x="190" y="1280" width="120" height="80" as="geometry" />
        </mxCell>
        <mxCell id="Tc0AgeBy6P-cAT61xZyd-62" value="Save block changes" style="ellipse;whiteSpace=wrap;html=1;" parent="1" vertex="1">
          <mxGeometry x="190" y="1380" width="120" height="80" as="geometry" />
        </mxCell>
        <mxCell id="Tc0AgeBy6P-cAT61xZyd-63" value="Remove block" style="ellipse;whiteSpace=wrap;html=1;" parent="1" vertex="1">
          <mxGeometry x="190" y="1487.5" width="120" height="80" as="geometry" />
        </mxCell>
        <mxCell id="Tc0AgeBy6P-cAT61xZyd-66" value="UPB CODE LABS" style="text;html=1;strokeColor=none;fillColor=none;align=center;verticalAlign=middle;whiteSpace=wrap;rounded=0;" parent="1" vertex="1">
          <mxGeometry x="200" y="1120" width="100" height="30" as="geometry" />
        </mxCell>
        <mxCell id="Tc0AgeBy6P-cAT61xZyd-68" value="" style="endArrow=none;html=1;rounded=0;exitX=0.5;exitY=0.5;exitDx=0;exitDy=0;exitPerimeter=0;entryX=0;entryY=0.5;entryDx=0;entryDy=0;endFill=0;" parent="1" source="Tc0AgeBy6P-cAT61xZyd-59" target="Tc0AgeBy6P-cAT61xZyd-60" edge="1">
          <mxGeometry width="50" height="50" relative="1" as="geometry">
            <mxPoint x="160" y="1440" as="sourcePoint" />
            <mxPoint x="210" y="1390" as="targetPoint" />
          </mxGeometry>
        </mxCell>
        <mxCell id="Tc0AgeBy6P-cAT61xZyd-69" value="" style="endArrow=none;html=1;rounded=0;exitX=0.5;exitY=0.5;exitDx=0;exitDy=0;exitPerimeter=0;entryX=0;entryY=0.5;entryDx=0;entryDy=0;endFill=0;" parent="1" source="Tc0AgeBy6P-cAT61xZyd-59" target="Tc0AgeBy6P-cAT61xZyd-61" edge="1">
          <mxGeometry width="50" height="50" relative="1" as="geometry">
            <mxPoint x="160" y="1440" as="sourcePoint" />
            <mxPoint x="210" y="1390" as="targetPoint" />
          </mxGeometry>
        </mxCell>
        <mxCell id="Tc0AgeBy6P-cAT61xZyd-70" value="" style="endArrow=none;html=1;rounded=0;exitX=0.5;exitY=0.5;exitDx=0;exitDy=0;exitPerimeter=0;entryX=0;entryY=0.5;entryDx=0;entryDy=0;endFill=0;" parent="1" source="Tc0AgeBy6P-cAT61xZyd-59" target="Tc0AgeBy6P-cAT61xZyd-62" edge="1">
          <mxGeometry width="50" height="50" relative="1" as="geometry">
            <mxPoint x="160" y="1440" as="sourcePoint" />
            <mxPoint x="210" y="1390" as="targetPoint" />
          </mxGeometry>
        </mxCell>
        <mxCell id="Tc0AgeBy6P-cAT61xZyd-71" value="" style="endArrow=none;html=1;rounded=0;exitX=0.5;exitY=0.5;exitDx=0;exitDy=0;exitPerimeter=0;entryX=0;entryY=0.5;entryDx=0;entryDy=0;endFill=0;" parent="1" source="Tc0AgeBy6P-cAT61xZyd-59" target="Tc0AgeBy6P-cAT61xZyd-63" edge="1">
          <mxGeometry width="50" height="50" relative="1" as="geometry">
            <mxPoint x="160" y="1440" as="sourcePoint" />
            <mxPoint x="210" y="1390" as="targetPoint" />
          </mxGeometry>
        </mxCell>
        <mxCell id="Tc0AgeBy6P-cAT61xZyd-72" value="Teacher" style="shape=umlActor;verticalLabelPosition=bottom;verticalAlign=top;html=1;outlineConnect=0;" parent="1" vertex="1">
          <mxGeometry x="460" y="1420" width="30" height="60" as="geometry" />
        </mxCell>
        <mxCell id="Tc0AgeBy6P-cAT61xZyd-73" value="See students advances" style="ellipse;whiteSpace=wrap;html=1;" parent="1" vertex="1">
          <mxGeometry x="635" y="1212.5" width="120" height="80" as="geometry" />
        </mxCell>
        <mxCell id="Tc0AgeBy6P-cAT61xZyd-74" value="Add grade to student using a rubric" style="ellipse;whiteSpace=wrap;html=1;" parent="1" vertex="1">
          <mxGeometry x="635" y="1407.5" width="120" height="80" as="geometry" />
        </mxCell>
        <mxCell id="Tc0AgeBy6P-cAT61xZyd-81" value="List students grades in laboratory" style="ellipse;whiteSpace=wrap;html=1;" parent="1" vertex="1">
          <mxGeometry x="635" y="1507.5" width="120" height="80" as="geometry" />
        </mxCell>
        <mxCell id="Tc0AgeBy6P-cAT61xZyd-82" value="Edit student grade in laboratory" style="ellipse;whiteSpace=wrap;html=1;" parent="1" vertex="1">
          <mxGeometry x="635" y="1607.5" width="120" height="80" as="geometry" />
        </mxCell>
        <mxCell id="Tc0AgeBy6P-cAT61xZyd-85" value="Download student code" style="ellipse;whiteSpace=wrap;html=1;" parent="1" vertex="1">
          <mxGeometry x="635" y="1307.5" width="120" height="80" as="geometry" />
        </mxCell>
        <mxCell id="Tc0AgeBy6P-cAT61xZyd-87" value="UPB CODE LABS" style="text;html=1;strokeColor=none;fillColor=none;align=center;verticalAlign=middle;whiteSpace=wrap;rounded=0;" parent="1" vertex="1">
          <mxGeometry x="645" y="1160" width="100" height="30" as="geometry" />
        </mxCell>
        <mxCell id="Tc0AgeBy6P-cAT61xZyd-88" value="" style="endArrow=none;html=1;rounded=0;exitX=0.5;exitY=0.5;exitDx=0;exitDy=0;exitPerimeter=0;entryX=0;entryY=0.5;entryDx=0;entryDy=0;endFill=0;" parent="1" source="Tc0AgeBy6P-cAT61xZyd-72" target="Tc0AgeBy6P-cAT61xZyd-73" edge="1">
          <mxGeometry width="50" height="50" relative="1" as="geometry">
            <mxPoint x="540" y="1510" as="sourcePoint" />
            <mxPoint x="590" y="1460" as="targetPoint" />
          </mxGeometry>
        </mxCell>
        <mxCell id="Tc0AgeBy6P-cAT61xZyd-89" value="" style="endArrow=none;html=1;rounded=0;exitX=0.5;exitY=0.5;exitDx=0;exitDy=0;exitPerimeter=0;entryX=0;entryY=0.5;entryDx=0;entryDy=0;endFill=0;" parent="1" source="Tc0AgeBy6P-cAT61xZyd-72" target="Tc0AgeBy6P-cAT61xZyd-85" edge="1">
          <mxGeometry width="50" height="50" relative="1" as="geometry">
            <mxPoint x="580" y="1440" as="sourcePoint" />
            <mxPoint x="630" y="1390" as="targetPoint" />
          </mxGeometry>
        </mxCell>
        <mxCell id="Tc0AgeBy6P-cAT61xZyd-90" value="" style="endArrow=none;html=1;rounded=0;exitX=0.5;exitY=0.5;exitDx=0;exitDy=0;exitPerimeter=0;entryX=0;entryY=0.5;entryDx=0;entryDy=0;endFill=0;" parent="1" source="Tc0AgeBy6P-cAT61xZyd-72" target="Tc0AgeBy6P-cAT61xZyd-74" edge="1">
          <mxGeometry width="50" height="50" relative="1" as="geometry">
            <mxPoint x="580" y="1440" as="sourcePoint" />
            <mxPoint x="630" y="1390" as="targetPoint" />
          </mxGeometry>
        </mxCell>
        <mxCell id="Tc0AgeBy6P-cAT61xZyd-91" value="" style="endArrow=none;html=1;rounded=0;exitX=0.5;exitY=0.5;exitDx=0;exitDy=0;exitPerimeter=0;entryX=0;entryY=0.5;entryDx=0;entryDy=0;endFill=0;" parent="1" source="Tc0AgeBy6P-cAT61xZyd-72" target="Tc0AgeBy6P-cAT61xZyd-81" edge="1">
          <mxGeometry width="50" height="50" relative="1" as="geometry">
            <mxPoint x="580" y="1440" as="sourcePoint" />
            <mxPoint x="630" y="1390" as="targetPoint" />
          </mxGeometry>
        </mxCell>
        <mxCell id="Tc0AgeBy6P-cAT61xZyd-92" value="" style="endArrow=none;html=1;rounded=0;exitX=0.5;exitY=0.5;exitDx=0;exitDy=0;exitPerimeter=0;entryX=0;entryY=0.5;entryDx=0;entryDy=0;endFill=0;" parent="1" source="Tc0AgeBy6P-cAT61xZyd-72" target="Tc0AgeBy6P-cAT61xZyd-82" edge="1">
          <mxGeometry width="50" height="50" relative="1" as="geometry">
            <mxPoint x="580" y="1440" as="sourcePoint" />
            <mxPoint x="630" y="1390" as="targetPoint" />
          </mxGeometry>
        </mxCell>
        <mxCell id="Tc0AgeBy6P-cAT61xZyd-93" value="Student" style="shape=umlActor;verticalLabelPosition=bottom;verticalAlign=top;html=1;outlineConnect=0;" parent="1" vertex="1">
          <mxGeometry x="920" y="95" width="30" height="60" as="geometry" />
        </mxCell>
        <mxCell id="Tc0AgeBy6P-cAT61xZyd-96" value="Hide course" style="ellipse;whiteSpace=wrap;html=1;" parent="1" vertex="1">
          <mxGeometry x="1040" y="85" width="120" height="80" as="geometry" />
        </mxCell>
        <mxCell id="Tc0AgeBy6P-cAT61xZyd-97" value="" style="endArrow=none;html=1;rounded=0;exitX=0.5;exitY=0.5;exitDx=0;exitDy=0;exitPerimeter=0;endFill=0;" parent="1" source="Tc0AgeBy6P-cAT61xZyd-93" target="Tc0AgeBy6P-cAT61xZyd-96" edge="1">
          <mxGeometry width="50" height="50" relative="1" as="geometry">
            <mxPoint x="840" y="180" as="sourcePoint" />
            <mxPoint x="890" y="130" as="targetPoint" />
          </mxGeometry>
        </mxCell>
        <mxCell id="Tc0AgeBy6P-cAT61xZyd-99" value="UPB CODE LABS" style="text;html=1;strokeColor=none;fillColor=none;align=center;verticalAlign=middle;whiteSpace=wrap;rounded=0;" parent="1" vertex="1">
          <mxGeometry x="1050" y="30" width="100" height="30" as="geometry" />
        </mxCell>
        <mxCell id="Tc0AgeBy6P-cAT61xZyd-100" value="" style="rounded=0;whiteSpace=wrap;html=1;" parent="1" vertex="1">
          <mxGeometry x="995" y="280" width="205" height="180" as="geometry" />
        </mxCell>
        <mxCell id="Tc0AgeBy6P-cAT61xZyd-101" value="Student" style="shape=umlActor;verticalLabelPosition=bottom;verticalAlign=top;html=1;outlineConnect=0;" parent="1" vertex="1">
          <mxGeometry x="920" y="345" width="30" height="60" as="geometry" />
        </mxCell>
        <mxCell id="Tc0AgeBy6P-cAT61xZyd-102" value="Enroll to course using invitation code" style="ellipse;whiteSpace=wrap;html=1;" parent="1" vertex="1">
          <mxGeometry x="1040" y="335" width="120" height="80" as="geometry" />
        </mxCell>
        <mxCell id="Tc0AgeBy6P-cAT61xZyd-103" value="" style="endArrow=none;html=1;rounded=0;exitX=0.5;exitY=0.5;exitDx=0;exitDy=0;exitPerimeter=0;endFill=0;" parent="1" source="Tc0AgeBy6P-cAT61xZyd-101" target="Tc0AgeBy6P-cAT61xZyd-102" edge="1">
          <mxGeometry width="50" height="50" relative="1" as="geometry">
            <mxPoint x="840" y="430" as="sourcePoint" />
            <mxPoint x="890" y="380" as="targetPoint" />
          </mxGeometry>
        </mxCell>
        <mxCell id="Tc0AgeBy6P-cAT61xZyd-104" value="UPB CODE LABS" style="text;html=1;strokeColor=none;fillColor=none;align=center;verticalAlign=middle;whiteSpace=wrap;rounded=0;" parent="1" vertex="1">
          <mxGeometry x="1050" y="280" width="100" height="30" as="geometry" />
        </mxCell>
        <mxCell id="Tc0AgeBy6P-cAT61xZyd-105" value="" style="rounded=0;whiteSpace=wrap;html=1;" parent="1" vertex="1">
          <mxGeometry x="995" y="550" width="205" height="180" as="geometry" />
        </mxCell>
        <mxCell id="Tc0AgeBy6P-cAT61xZyd-106" value="Student" style="shape=umlActor;verticalLabelPosition=bottom;verticalAlign=top;html=1;outlineConnect=0;" parent="1" vertex="1">
          <mxGeometry x="920" y="615" width="30" height="60" as="geometry" />
        </mxCell>
        <mxCell id="Tc0AgeBy6P-cAT61xZyd-107" value="List laboratories in class" style="ellipse;whiteSpace=wrap;html=1;" parent="1" vertex="1">
          <mxGeometry x="1040" y="605" width="120" height="80" as="geometry" />
        </mxCell>
        <mxCell id="Tc0AgeBy6P-cAT61xZyd-108" value="" style="endArrow=none;html=1;rounded=0;exitX=0.5;exitY=0.5;exitDx=0;exitDy=0;exitPerimeter=0;endFill=0;" parent="1" source="Tc0AgeBy6P-cAT61xZyd-106" target="Tc0AgeBy6P-cAT61xZyd-107" edge="1">
          <mxGeometry width="50" height="50" relative="1" as="geometry">
            <mxPoint x="840" y="700" as="sourcePoint" />
            <mxPoint x="890" y="650" as="targetPoint" />
          </mxGeometry>
        </mxCell>
        <mxCell id="Tc0AgeBy6P-cAT61xZyd-109" value="UPB CODE LABS" style="text;html=1;strokeColor=none;fillColor=none;align=center;verticalAlign=middle;whiteSpace=wrap;rounded=0;" parent="1" vertex="1">
          <mxGeometry x="1050" y="550" width="100" height="30" as="geometry" />
        </mxCell>
        <mxCell id="Tc0AgeBy6P-cAT61xZyd-116" value="" style="rounded=0;whiteSpace=wrap;html=1;" parent="1" vertex="1">
          <mxGeometry x="995" y="830" width="205" height="180" as="geometry" />
        </mxCell>
        <mxCell id="Tc0AgeBy6P-cAT61xZyd-117" value="Student" style="shape=umlActor;verticalLabelPosition=bottom;verticalAlign=top;html=1;outlineConnect=0;" parent="1" vertex="1">
          <mxGeometry x="920" y="895" width="30" height="60" as="geometry" />
        </mxCell>
        <mxCell id="Tc0AgeBy6P-cAT61xZyd-120" value="UPB CODE LABS" style="text;html=1;strokeColor=none;fillColor=none;align=center;verticalAlign=middle;whiteSpace=wrap;rounded=0;" parent="1" vertex="1">
          <mxGeometry x="1050" y="830" width="100" height="30" as="geometry" />
        </mxCell>
        <mxCell id="Tc0AgeBy6P-cAT61xZyd-121" value="Submit code in test block" style="ellipse;whiteSpace=wrap;html=1;" parent="1" vertex="1">
          <mxGeometry x="1040" y="885" width="120" height="80" as="geometry" />
        </mxCell>
        <mxCell id="Tc0AgeBy6P-cAT61xZyd-122" value="" style="rounded=0;whiteSpace=wrap;html=1;" parent="1" vertex="1">
          <mxGeometry x="1395" y="30" width="205" height="270" as="geometry" />
        </mxCell>
        <mxCell id="Tc0AgeBy6P-cAT61xZyd-123" value="Student" style="shape=umlActor;verticalLabelPosition=bottom;verticalAlign=top;html=1;outlineConnect=0;" parent="1" vertex="1">
          <mxGeometry x="1320" y="95" width="30" height="60" as="geometry" />
        </mxCell>
        <mxCell id="Tc0AgeBy6P-cAT61xZyd-124" value="See progress bar" style="ellipse;whiteSpace=wrap;html=1;" parent="1" vertex="1">
          <mxGeometry x="1440" y="85" width="120" height="80" as="geometry" />
        </mxCell>
        <mxCell id="Tc0AgeBy6P-cAT61xZyd-125" value="" style="endArrow=none;html=1;rounded=0;exitX=0.5;exitY=0.5;exitDx=0;exitDy=0;exitPerimeter=0;endFill=0;" parent="1" source="Tc0AgeBy6P-cAT61xZyd-123" target="Tc0AgeBy6P-cAT61xZyd-124" edge="1">
          <mxGeometry width="50" height="50" relative="1" as="geometry">
            <mxPoint x="1240" y="180" as="sourcePoint" />
            <mxPoint x="1290" y="130" as="targetPoint" />
          </mxGeometry>
        </mxCell>
        <mxCell id="Tc0AgeBy6P-cAT61xZyd-126" value="UPB CODE LABS" style="text;html=1;strokeColor=none;fillColor=none;align=center;verticalAlign=middle;whiteSpace=wrap;rounded=0;" parent="1" vertex="1">
          <mxGeometry x="1450" y="30" width="100" height="30" as="geometry" />
        </mxCell>
        <mxCell id="Tc0AgeBy6P-cAT61xZyd-127" value="See obtained grade in laboratory" style="ellipse;whiteSpace=wrap;html=1;" parent="1" vertex="1">
          <mxGeometry x="1440" y="190" width="120" height="80" as="geometry" />
        </mxCell>
        <mxCell id="Tc0AgeBy6P-cAT61xZyd-128" value="" style="endArrow=none;html=1;rounded=0;exitX=0.5;exitY=0.5;exitDx=0;exitDy=0;exitPerimeter=0;entryX=0;entryY=0.5;entryDx=0;entryDy=0;endFill=0;" parent="1" source="Tc0AgeBy6P-cAT61xZyd-123" target="Tc0AgeBy6P-cAT61xZyd-127" edge="1">
          <mxGeometry width="50" height="50" relative="1" as="geometry">
            <mxPoint x="1180" y="310" as="sourcePoint" />
            <mxPoint x="1230" y="260" as="targetPoint" />
          </mxGeometry>
        </mxCell>
        <mxCell id="Tc0AgeBy6P-cAT61xZyd-129" value="" style="endArrow=none;html=1;rounded=0;exitX=0.5;exitY=0.5;exitDx=0;exitDy=0;exitPerimeter=0;entryX=0;entryY=0.5;entryDx=0;entryDy=0;endFill=0;" parent="1" source="Tc0AgeBy6P-cAT61xZyd-117" target="Tc0AgeBy6P-cAT61xZyd-121" edge="1">
          <mxGeometry width="50" height="50" relative="1" as="geometry">
            <mxPoint x="1090" y="960" as="sourcePoint" />
            <mxPoint x="1140" y="910" as="targetPoint" />
          </mxGeometry>
        </mxCell>
        <mxCell id="Tc0AgeBy6P-cAT61xZyd-130" value="" style="rounded=0;whiteSpace=wrap;html=1;" parent="1" vertex="1">
          <mxGeometry x="95" y="2240" width="205" height="380" as="geometry" />
        </mxCell>
        <mxCell id="Tc0AgeBy6P-cAT61xZyd-131" value="Admin" style="shape=umlActor;verticalLabelPosition=bottom;verticalAlign=top;html=1;outlineConnect=0;" parent="1" vertex="1">
          <mxGeometry x="20" y="2410" width="30" height="60" as="geometry" />
        </mxCell>
        <mxCell id="Tc0AgeBy6P-cAT61xZyd-132" value="Register teacher" style="ellipse;whiteSpace=wrap;html=1;" parent="1" vertex="1">
          <mxGeometry x="140" y="2295" width="120" height="80" as="geometry" />
        </mxCell>
        <mxCell id="Tc0AgeBy6P-cAT61xZyd-133" value="" style="endArrow=none;html=1;rounded=0;exitX=0.5;exitY=0.5;exitDx=0;exitDy=0;exitPerimeter=0;endFill=0;" parent="1" source="Tc0AgeBy6P-cAT61xZyd-131" target="Tc0AgeBy6P-cAT61xZyd-132" edge="1">
          <mxGeometry width="50" height="50" relative="1" as="geometry">
            <mxPoint x="-60" y="2390" as="sourcePoint" />
            <mxPoint x="-10" y="2340" as="targetPoint" />
          </mxGeometry>
        </mxCell>
        <mxCell id="Tc0AgeBy6P-cAT61xZyd-134" value="UPB CODE LABS" style="text;html=1;strokeColor=none;fillColor=none;align=center;verticalAlign=middle;whiteSpace=wrap;rounded=0;" parent="1" vertex="1">
          <mxGeometry x="150" y="2240" width="100" height="30" as="geometry" />
        </mxCell>
        <mxCell id="Tc0AgeBy6P-cAT61xZyd-135" value="Register admin" style="ellipse;whiteSpace=wrap;html=1;" parent="1" vertex="1">
          <mxGeometry x="140" y="2400" width="120" height="80" as="geometry" />
        </mxCell>
        <mxCell id="Tc0AgeBy6P-cAT61xZyd-136" value="" style="endArrow=none;html=1;rounded=0;exitX=0.5;exitY=0.5;exitDx=0;exitDy=0;exitPerimeter=0;entryX=0;entryY=0.5;entryDx=0;entryDy=0;endFill=0;" parent="1" source="Tc0AgeBy6P-cAT61xZyd-131" target="Tc0AgeBy6P-cAT61xZyd-135" edge="1">
          <mxGeometry width="50" height="50" relative="1" as="geometry">
            <mxPoint x="-120" y="2520" as="sourcePoint" />
            <mxPoint x="-70" y="2470" as="targetPoint" />
          </mxGeometry>
        </mxCell>
        <mxCell id="Tc0AgeBy6P-cAT61xZyd-137" value="List admin accounts" style="ellipse;whiteSpace=wrap;html=1;" parent="1" vertex="1">
          <mxGeometry x="140" y="2510" width="120" height="80" as="geometry" />
        </mxCell>
        <mxCell id="Tc0AgeBy6P-cAT61xZyd-138" value="" style="endArrow=none;html=1;rounded=0;exitX=0.5;exitY=0.5;exitDx=0;exitDy=0;exitPerimeter=0;entryX=0;entryY=0.5;entryDx=0;entryDy=0;endFill=0;" parent="1" source="Tc0AgeBy6P-cAT61xZyd-131" target="Tc0AgeBy6P-cAT61xZyd-137" edge="1">
          <mxGeometry width="50" height="50" relative="1" as="geometry">
            <mxPoint x="240" y="2470" as="sourcePoint" />
            <mxPoint x="290" y="2420" as="targetPoint" />
          </mxGeometry>
        </mxCell>
        <mxCell id="Tc0AgeBy6P-cAT61xZyd-139" value="" style="rounded=0;whiteSpace=wrap;html=1;" parent="1" vertex="1">
          <mxGeometry x="955" y="2240" width="205" height="180" as="geometry" />
        </mxCell>
        <mxCell id="Tc0AgeBy6P-cAT61xZyd-140" value="User" style="shape=umlActor;verticalLabelPosition=bottom;verticalAlign=top;html=1;outlineConnect=0;" parent="1" vertex="1">
          <mxGeometry x="870" y="2305" width="30" height="60" as="geometry" />
        </mxCell>
        <mxCell id="Tc0AgeBy6P-cAT61xZyd-143" value="UPB CODE LABS" style="text;html=1;strokeColor=none;fillColor=none;align=center;verticalAlign=middle;whiteSpace=wrap;rounded=0;" parent="1" vertex="1">
          <mxGeometry x="1010" y="2240" width="100" height="30" as="geometry" />
        </mxCell>
        <mxCell id="Tc0AgeBy6P-cAT61xZyd-150" value="Update password" style="ellipse;whiteSpace=wrap;html=1;" parent="1" vertex="1">
          <mxGeometry x="997.5" y="2295" width="120" height="80" as="geometry" />
        </mxCell>
        <mxCell id="Tc0AgeBy6P-cAT61xZyd-151" value="" style="endArrow=none;html=1;rounded=0;exitX=0.5;exitY=0.5;exitDx=0;exitDy=0;exitPerimeter=0;entryX=0;entryY=0.5;entryDx=0;entryDy=0;endFill=0;" parent="1" source="Tc0AgeBy6P-cAT61xZyd-140" target="Tc0AgeBy6P-cAT61xZyd-150" edge="1">
          <mxGeometry width="50" height="50" relative="1" as="geometry">
            <mxPoint x="790" y="2460" as="sourcePoint" />
            <mxPoint x="840" y="2410" as="targetPoint" />
          </mxGeometry>
        </mxCell>
        <mxCell id="Tc0AgeBy6P-cAT61xZyd-154" style="edgeStyle=orthogonalEdgeStyle;rounded=0;orthogonalLoop=1;jettySize=auto;html=1;exitX=0.5;exitY=1;exitDx=0;exitDy=0;" parent="1" source="Tc0AgeBy6P-cAT61xZyd-139" target="Tc0AgeBy6P-cAT61xZyd-139" edge="1">
          <mxGeometry relative="1" as="geometry" />
        </mxCell>
        <mxCell id="Tc0AgeBy6P-cAT61xZyd-155" value="" style="rounded=0;whiteSpace=wrap;html=1;" parent="1" vertex="1">
          <mxGeometry x="955" y="2480" width="205" height="270" as="geometry" />
        </mxCell>
        <mxCell id="Tc0AgeBy6P-cAT61xZyd-156" value="User" style="shape=umlActor;verticalLabelPosition=bottom;verticalAlign=top;html=1;outlineConnect=0;" parent="1" vertex="1">
          <mxGeometry x="870" y="2585" width="30" height="60" as="geometry" />
        </mxCell>
        <mxCell id="Tc0AgeBy6P-cAT61xZyd-157" value="UPB CODE LABS" style="text;html=1;strokeColor=none;fillColor=none;align=center;verticalAlign=middle;whiteSpace=wrap;rounded=0;" parent="1" vertex="1">
          <mxGeometry x="1010" y="2480" width="100" height="30" as="geometry" />
        </mxCell>
        <mxCell id="Tc0AgeBy6P-cAT61xZyd-158" value="Login" style="ellipse;whiteSpace=wrap;html=1;" parent="1" vertex="1">
          <mxGeometry x="997.5" y="2535" width="120" height="80" as="geometry" />
        </mxCell>
        <mxCell id="Tc0AgeBy6P-cAT61xZyd-159" value="" style="endArrow=none;html=1;rounded=0;exitX=0.5;exitY=0.5;exitDx=0;exitDy=0;exitPerimeter=0;entryX=0;entryY=0.5;entryDx=0;entryDy=0;endFill=0;" parent="1" source="Tc0AgeBy6P-cAT61xZyd-156" target="Tc0AgeBy6P-cAT61xZyd-158" edge="1">
          <mxGeometry width="50" height="50" relative="1" as="geometry">
            <mxPoint x="790" y="2700" as="sourcePoint" />
            <mxPoint x="840" y="2650" as="targetPoint" />
          </mxGeometry>
        </mxCell>
        <mxCell id="Tc0AgeBy6P-cAT61xZyd-160" style="edgeStyle=orthogonalEdgeStyle;rounded=0;orthogonalLoop=1;jettySize=auto;html=1;exitX=0.5;exitY=1;exitDx=0;exitDy=0;" parent="1" source="Tc0AgeBy6P-cAT61xZyd-155" target="Tc0AgeBy6P-cAT61xZyd-155" edge="1">
          <mxGeometry relative="1" as="geometry" />
        </mxCell>
        <mxCell id="Tc0AgeBy6P-cAT61xZyd-162" value="Logout" style="ellipse;whiteSpace=wrap;html=1;" parent="1" vertex="1">
          <mxGeometry x="997.5" y="2640" width="120" height="80" as="geometry" />
        </mxCell>
        <mxCell id="Tc0AgeBy6P-cAT61xZyd-163" value="" style="endArrow=none;html=1;rounded=0;exitX=0.5;exitY=0.5;exitDx=0;exitDy=0;exitPerimeter=0;endFill=0;" parent="1" source="Tc0AgeBy6P-cAT61xZyd-156" target="Tc0AgeBy6P-cAT61xZyd-162" edge="1">
          <mxGeometry width="50" height="50" relative="1" as="geometry">
            <mxPoint x="790" y="2460" as="sourcePoint" />
            <mxPoint x="840" y="2410" as="targetPoint" />
          </mxGeometry>
        </mxCell>
        <mxCell id="dWn8KIUKFmlRH5z59mey-4" value="Swap blocks position" style="ellipse;whiteSpace=wrap;html=1;" vertex="1" parent="1">
          <mxGeometry x="190" y="1600" width="120" height="80" as="geometry" />
        </mxCell>
        <mxCell id="dWn8KIUKFmlRH5z59mey-5" value="" style="endArrow=none;html=1;rounded=0;exitX=0.5;exitY=0.5;exitDx=0;exitDy=0;exitPerimeter=0;entryX=0;entryY=0.5;entryDx=0;entryDy=0;" edge="1" parent="1" source="Tc0AgeBy6P-cAT61xZyd-59" target="dWn8KIUKFmlRH5z59mey-4">
          <mxGeometry width="50" height="50" relative="1" as="geometry">
            <mxPoint x="420" y="1400" as="sourcePoint" />
            <mxPoint x="470" y="1350" as="targetPoint" />
          </mxGeometry>
        </mxCell>
      </root>
    </mxGraphModel>
  </diagram>
</mxfile>
